<svg width="57" height="57" viewBox="0 0 57 57" fill="none" xmlns="http://www.w3.org/2000/svg">
<g id="incognito" clip-path="url(#clip0_282_4539)">
<path id="Vector" fill-rule="evenodd" clip-rule="evenodd" d="M11.8438 36.0308C11.4446 35.4676 11.5774 34.6874 12.1406 34.2881L39.3336 15.0098C39.8967 14.6105 40.677 14.7434 41.0763 15.3066C41.4755 15.8697 41.3426 16.65 40.7795 17.0493L13.5865 36.3276C13.0233 36.7268 12.2431 36.5939 11.8438 36.0308Z" fill="white"/>
<path id="Vector_2" d="M15.1148 32.1796L14.0508 29.4502C12.6888 25.9565 12.0078 24.2097 12.5018 22.5613C12.9958 20.913 14.5253 19.8287 17.5844 17.66L21.8409 14.6423C24.8999 12.4736 26.4294 11.3893 28.1483 11.4688C29.8673 11.5483 31.2902 12.7691 34.136 15.2108L36.3593 17.1184L15.1148 32.1796Z" fill="white"/>
</g>
<defs>
<clipPath id="clip0_282_4539">
<rect width="40" height="40" fill="white" transform="translate(0.505096 23.6392) rotate(-35.3346)"/>
</clipPath>
</defs>
</svg>
