<svg width="17" height="18" viewBox="0 0 17 18" fill="none" xmlns="http://www.w3.org/2000/svg">
<g id="Password" clip-path="url(#clip0_282_4500)">
<path id="Vector" d="M9.62341 15.6855C9.65628 15.7204 9.69532 15.748 9.73828 15.7669C9.78125 15.7857 9.8273 15.7954 9.87381 15.7954C9.92031 15.7954 9.96636 15.7857 10.0093 15.7669C10.0523 15.748 10.0913 15.7204 10.1242 15.6855L10.2709 15.5303V15.75C10.2709 15.8495 10.3082 15.9448 10.3746 16.0152C10.441 16.0855 10.5311 16.125 10.625 16.125C10.719 16.125 10.809 16.0855 10.8755 16.0152C10.9419 15.9448 10.9792 15.8495 10.9792 15.75V15.5303L11.1259 15.6855C11.1927 15.7538 11.2821 15.7916 11.375 15.7908C11.4678 15.7899 11.5567 15.7505 11.6223 15.681C11.688 15.6114 11.7252 15.5174 11.7261 15.4191C11.7269 15.3207 11.6912 15.226 11.6266 15.1553L11.1259 14.625L11.6266 14.0947C11.6912 14.024 11.7269 13.9293 11.7261 13.8309C11.7252 13.7326 11.688 13.6386 11.6223 13.569C11.5567 13.4995 11.4678 13.4601 11.375 13.4592C11.2821 13.4584 11.1927 13.4962 11.1259 13.5645L10.9792 13.7197V13.5C10.9792 13.4005 10.9419 13.3052 10.8755 13.2348C10.809 13.1645 10.719 13.125 10.625 13.125C10.5311 13.125 10.441 13.1645 10.3746 13.2348C10.3082 13.3052 10.2709 13.4005 10.2709 13.5V13.7197L10.1242 13.5645C10.0574 13.4962 9.96794 13.4584 9.87508 13.4592C9.78222 13.4601 9.69339 13.4995 9.62772 13.569C9.56206 13.6386 9.52481 13.7326 9.524 13.8309C9.5232 13.9293 9.5589 14.024 9.62341 14.0947L10.1242 14.625L9.62341 15.1553C9.55701 15.2256 9.51971 15.321 9.51971 15.4204C9.51971 15.5198 9.55701 15.6152 9.62341 15.6855ZM12.8109 15.6855C12.8438 15.7204 12.8828 15.748 12.9258 15.7669C12.9687 15.7857 13.0148 15.7954 13.0613 15.7954C13.1078 15.7954 13.1539 15.7857 13.1968 15.7669C13.2398 15.748 13.2788 15.7204 13.3117 15.6855L13.4584 15.5303V15.75C13.4584 15.8495 13.4957 15.9448 13.5621 16.0152C13.6285 16.0855 13.7186 16.125 13.8125 16.125C13.9065 16.125 13.9965 16.0855 14.063 16.0152C14.1294 15.9448 14.1667 15.8495 14.1667 15.75V15.5303L14.3134 15.6855C14.3802 15.7538 14.4696 15.7916 14.5625 15.7908C14.6553 15.7899 14.7442 15.7505 14.8098 15.681C14.8755 15.6114 14.9127 15.5174 14.9136 15.4191C14.9144 15.3207 14.8787 15.226 14.8141 15.1553L14.3134 14.625L14.8141 14.0947C14.8787 14.024 14.9144 13.9293 14.9136 13.8309C14.9127 13.7326 14.8755 13.6386 14.8098 13.569C14.7442 13.4995 14.6553 13.4601 14.5625 13.4592C14.4696 13.4584 14.3802 13.4962 14.3134 13.5645L14.1667 13.7197V13.5C14.1667 13.4005 14.1294 13.3052 14.063 13.2348C13.9965 13.1645 13.9065 13.125 13.8125 13.125C13.7186 13.125 13.6285 13.1645 13.5621 13.2348C13.4957 13.3052 13.4584 13.4005 13.4584 13.5V13.7197L13.3117 13.5645C13.2449 13.4962 13.1554 13.4584 13.0626 13.4592C12.9697 13.4601 12.8809 13.4995 12.8152 13.569C12.7496 13.6386 12.7123 13.7326 12.7115 13.8309C12.7107 13.9293 12.7464 14.024 12.8109 14.0947L13.3117 14.625L12.8109 15.1553C12.7445 15.2256 12.7072 15.321 12.7072 15.4204C12.7072 15.5198 12.7445 15.6152 12.8109 15.6855ZM6.43591 15.6855C6.46878 15.7204 6.50782 15.748 6.55078 15.7669C6.59375 15.7857 6.6398 15.7954 6.68631 15.7954C6.73281 15.7954 6.77886 15.7857 6.82183 15.7669C6.86479 15.748 6.90383 15.7204 6.9367 15.6855L7.08336 15.5303V15.75C7.08336 15.8495 7.12068 15.9448 7.18709 16.0152C7.25351 16.0855 7.3436 16.125 7.43753 16.125C7.53146 16.125 7.62154 16.0855 7.68796 16.0152C7.75438 15.9448 7.79169 15.8495 7.79169 15.75V15.5303L7.93836 15.6855C8.00515 15.7538 8.09461 15.7916 8.18748 15.7908C8.28034 15.7899 8.36917 15.7505 8.43483 15.681C8.5005 15.6114 8.53775 15.5174 8.53855 15.4191C8.53936 15.3207 8.50366 15.226 8.43915 15.1553L7.93836 14.625L8.43915 14.0947C8.50366 14.024 8.53936 13.9293 8.53855 13.8309C8.53775 13.7326 8.5005 13.6386 8.43483 13.569C8.36917 13.4995 8.28034 13.4601 8.18748 13.4592C8.09461 13.4584 8.00515 13.4962 7.93836 13.5645L7.79169 13.7197V13.5C7.79169 13.4005 7.75438 13.3052 7.68796 13.2348C7.62154 13.1645 7.53146 13.125 7.43753 13.125C7.3436 13.125 7.25351 13.1645 7.18709 13.2348C7.12068 13.3052 7.08336 13.4005 7.08336 13.5V13.7197L6.9367 13.5645C6.8699 13.4962 6.78044 13.4584 6.68758 13.4592C6.59472 13.4601 6.50589 13.4995 6.44022 13.569C6.37456 13.6386 6.33731 13.7326 6.3365 13.8309C6.3357 13.9293 6.37139 14.024 6.43591 14.0947L6.9367 14.625L6.43591 15.1553C6.36951 15.2256 6.33221 15.321 6.33221 15.4204C6.33221 15.5198 6.36951 15.6152 6.43591 15.6855Z" fill="#B3B3B3"/>
<path id="Vector_2" d="M15.5833 12H12.0416V6.75C12.0413 6.3523 11.8919 5.97101 11.6263 5.6898C11.3607 5.40859 11.0006 5.25042 10.625 5.25H9.91665V3.375C9.91589 2.67905 9.65445 2.01184 9.18968 1.51973C8.72491 1.02762 8.09476 0.750804 7.43748 0.75H5.31248C4.6552 0.750804 4.02505 1.02762 3.56028 1.51973C3.09551 2.01184 2.83407 2.67905 2.83331 3.375V5.25H2.12498C1.74938 5.25042 1.38927 5.40859 1.12368 5.6898C0.858089 5.97101 0.708707 6.3523 0.708313 6.75V14.25C0.708679 14.6477 0.858052 15.029 1.12365 15.3102C1.38925 15.5915 1.74937 15.7496 2.12498 15.75H4.95831V16.5C4.95857 16.6988 5.03328 16.8894 5.16606 17.03C5.29884 17.1706 5.47886 17.2497 5.66665 17.25H15.5833C15.7711 17.2497 15.9511 17.1706 16.0839 17.03C16.2167 16.8894 16.2914 16.6988 16.2916 16.5V12.75C16.2914 12.5512 16.2167 12.3606 16.0839 12.22C15.9511 12.0794 15.7711 12.0003 15.5833 12ZM3.54165 3.375C3.5422 2.8779 3.72895 2.40133 4.06092 2.04982C4.3929 1.69832 4.843 1.50059 5.31248 1.5H7.43748C7.90696 1.50059 8.35706 1.69832 8.68904 2.04982C9.02101 2.40133 9.20776 2.8779 9.20831 3.375V5.25H3.54165V3.375ZM2.12498 15C1.9372 14.9997 1.75718 14.9206 1.62439 14.78C1.49161 14.6394 1.4169 14.4488 1.41665 14.25V6.75C1.41686 6.55116 1.49156 6.36052 1.62435 6.21992C1.75714 6.07932 1.93718 6.00023 2.12498 6H10.625C10.8128 6.00023 10.9928 6.07932 11.1256 6.21992C11.2584 6.36052 11.3331 6.55116 11.3333 6.75V12H5.66665C5.47886 12.0003 5.29884 12.0794 5.16606 12.22C5.03328 12.3606 4.95857 12.5512 4.95831 12.75V15H2.12498ZM15.5833 16.5H5.66665V12.75L15.5833 12.7511V16.5Z" fill="#B3B3B3"/>
</g>
<defs>
<clipPath id="clip0_282_4500">
<rect width="17" height="18" fill="white"/>
</clipPath>
</defs>
</svg>
